# xmcd
#
# Track frame offsets:
#	151
#	22061
#	45580
#	70052
#	98374
#	133559
#	162139
#	180499
#	196404
#	220400
#
# Disc length: 3250 seconds
#
# Revision: 0
# Processed by: cddbd v1.5.2PL0 Copyright (c) Steve Scherf et al.
# Submitted via: audiograbber 1.83.01
#
DISCID=810cb00a
DTITLE=Alias Eye - Field Of Names
DYEAR=2001
DGENRE=Progressive Rock
TTITLE0=Field Of Names
TTITLE1=Premortal Dance
TTITLE2=Wasteland
TTITLE3=Just Another Tragic Song
TTITLE4=Driven
TTITLE5=River Running
TTITLE6=Hybrid
TTITLE7=Mystery
TTITLE8=The Readiness Is All [with Martin Griffith]
TTITLE9=An End In Itself
EXTD=
EXTT0=
EXTT1=
EXTT2=
EXTT3=
EXTT4=
EXTT5=
EXTT6=
EXTT7=
EXTT8=
EXTT9=
PLAYORDER=
